<?xml version="1.0" encoding="UTF-8" standalone="no"?>
<!-- Created with Inkscape (http://www.inkscape.org/) -->

<svg
   xmlns:dc="http://purl.org/dc/elements/1.1/"
   xmlns:cc="http://creativecommons.org/ns#"
   xmlns:rdf="http://www.w3.org/1999/02/22-rdf-syntax-ns#"
   xmlns:svg="http://www.w3.org/2000/svg"
   xmlns="http://www.w3.org/2000/svg"
   xmlns:sodipodi="http://sodipodi.sourceforge.net/DTD/sodipodi-0.dtd"
   xmlns:inkscape="http://www.inkscape.org/namespaces/inkscape"
   id="svg2"
   version="1.1"
   inkscape:version="0.91 r13725"
   xml:space="preserve"
   width="241.75"
   height="81.387497"
   viewBox="0 0 241.75 81.387497"
   sodipodi:docname="wmologo2016_acronym_horizontal_cmyk_en.svg"><metadata
     id="metadata8"><rdf:RDF><cc:Work
         rdf:about=""><dc:format>image/svg+xml</dc:format><dc:type
           rdf:resource="http://purl.org/dc/dcmitype/StillImage" /><dc:title></dc:title></cc:Work></rdf:RDF></metadata><defs
     id="defs6" /><sodipodi:namedview
     pagecolor="#ffffff"
     bordercolor="#666666"
     borderopacity="1"
     objecttolerance="10"
     gridtolerance="10"
     guidetolerance="10"
     inkscape:pageopacity="0"
     inkscape:pageshadow="2"
     inkscape:window-width="1227"
     inkscape:window-height="712"
     id="namedview4"
     showgrid="false"
     inkscape:zoom="1.344364"
     inkscape:cx="120.875"
     inkscape:cy="40.693748"
     inkscape:window-x="0"
     inkscape:window-y="0"
     inkscape:window-maximized="0"
     inkscape:current-layer="g10" /><g
     id="g10"
     inkscape:groupmode="layer"
     inkscape:label="ink_ext_XXXXXX"
     transform="matrix(1.25,0,0,-1.25,0,81.3875)"><g
       id="g12"
       transform="scale(0.1,0.1)"><path
         d="m 161.742,285.234 -2.512,-5 -3.871,-0.23 -2.562,-6.594 -3.375,-6.902 -0.027,-9.856 -14.637,-0.132 -2.36,-1.454 -6.546,0.286 -4.094,4.121 -5.012,-0.571 -4.305,-1.785 -5.371,0.641 -1.66,-2.692 -1.418,-6.628 -0.344,-8.641 3.336,-2.879 -0.343,-8.664 6.679,-6.176 0.793,9.777 6.782,-3.425 0.589,4.679 4.098,-2.949 0.227,-4.312 4.23,-0.61 5.926,-5.379 2.851,-6.019 7.594,-2.68 1.004,-3.605 13.84,-10.063 18.797,-2.414 5.133,-6.137 9.32,1.973 5.851,1.293 9.661,0.762 1.757,5.426 -6.003,13.234 -9.512,12.641 -0.387,9.464 -0.199,4.727 -4.781,5.344 0.242,6.289 2.48,4.207 -1.304,5.566 -4.289,-1.008 0.445,10.614 -6.465,11.718 0.527,3.528 -2.55,4.031 2.078,3.438 4.644,0.601 1.406,6.231 5.469,1.718 0.246,5.891 -1.832,2.816 2.168,5.45 4.711,2.527 3.832,-0.559 0.43,-8.656 1.867,-1.266 -1.996,-1.906 1.418,-3.215 -0.203,-4.715 -2.422,-3.027 3.035,-10.758 2.899,5.375 2.285,-0.886 3.336,-3.289 10.359,-0.86 -0.144,-3.547 3.906,0.992 1.761,-3.984 3.387,-2.117 2.68,-0.524 -0.57,-4.289 2.863,4.211 0.469,-7.117 3.75,-2.926 0.246,5.875 2.734,1.067 0.234,5.496 5.137,3.711 0.18,4.316 5.707,-1.422 1.859,7.387 4.477,6.109 2.148,5.422 4.172,-1.765 -0.168,-4.328 -2.394,-1.868 2.601,-2.468 -3.933,-1.793 -3.149,-1.434 0.281,-2.781 -1.222,-1.914 -2.797,-2.231 -1.34,-4.648 -3.207,-3.027 c 0,0 4.527,-2.555 5.676,-2.215 1.191,0.347 9.668,0.746 9.668,0.746 l 0.91,3.496 3.137,1.457 5.043,0.535 1.515,8.617 3.692,5.711 -4.782,5.344 -1.574,-0.313 -1.226,-2.312 0.277,7.07 -3.363,2.883 0.191,4.742 -3.75,2.516 -0.527,-3.535 -1.594,-1.489 -1.863,1.657 2.531,5.007 -0.301,2.379 -2.726,-0.668 -3.907,-1.406 -0.273,3.18 1.926,-0.485 3.519,1.407 -0.945,5.164 8.902,0.777 4.387,4.145 -0.145,5.894 2.743,0.676 0.101,2.344 -2.308,0.511 -0.254,3.145 2.761,1.855 5.469,2.125 0.121,2.344 -10.898,-2.254 -3.039,0.508 0.562,4.719 -1.949,-0.703 -3.238,-4.192 -1.348,-4.277 -6.297,-3.652 -5.379,0.652 -1.738,4.395 -3.102,0.136 -1.667,-3.883 -5.418,-0.125 -8.668,5.094 -8.77,1.981 -5.504,-2.524 -9.312,-1.941 -7.118,-4.399 -1.613,-1.519 2.668,-0.883 5.067,1.742 5.07,1.356 2.289,-0.895 -0.856,-1.922 -4.632,-0.218 -10.489,-2.266 -5.797,-0.527 -2.906,-4.614 -0.886,-3.093 -2.817,-3.028 0.914,-5.957 -1.707,-4.242 -2.062,-3.035 -0.496,-3.137 -2.012,-1.883 -0.164,-3.933 -3.414,1.324 0.07,-7.871 -2.125,-5.039 1.016,-3.574 -2.411,-2.254 -5.367,0.625 -4.89,2.968 -4.231,0.207"
         style="fill:#2056ae;fill-opacity:1;fill-rule:nonzero;stroke:none"
         id="path14"
         inkscape:connector-curvature="0" /><path
         d="m 197.535,294.277 -3,1.703 -0.597,-5.113 1.785,-3.972 -3.563,-2.243 -0.258,-6.25 2.481,-5.246 2.371,-8.363 0.699,7.82 2.535,5.422 -3.918,-1.41 0.192,4.715 2.133,5.406 -2.106,4.813 1.246,2.718"
         style="fill:#2056ae;fill-opacity:1;fill-rule:nonzero;stroke:none"
         id="path16"
         inkscape:connector-curvature="0" /><path
         d="m 199.48,284.746 -0.878,-3.113 2.984,-2.113 -1.035,2.793 -1.071,2.433"
         style="fill:#2056ae;fill-opacity:1;fill-rule:nonzero;stroke:none"
         id="path18"
         inkscape:connector-curvature="0" /><path
         d="m 121.34,210.691 0.574,-5.14 2.617,-2.09 -0.113,-2.363 3.055,-0.528 -0.203,3.95 -2.137,4.8 -3.793,1.371"
         style="fill:#2056ae;fill-opacity:1;fill-rule:nonzero;stroke:none"
         id="path20"
         inkscape:connector-curvature="0" /><path
         d="m 163.535,148.961 3.852,-0.555 0.277,-1.972 2.953,-2.868 -3.226,-3.808 -3.989,6.082 0.133,3.121"
         style="fill:#2056ae;fill-opacity:1;fill-rule:nonzero;stroke:none"
         id="path22"
         inkscape:connector-curvature="0" /><path
         d="m 385.43,205.195 1.238,1.93 2.281,-0.492 4.426,-5.313 -0.543,-3.511 1.906,-0.871 -0.035,-10.637 -2.773,-1.824 -4.356,-2.571 -3.097,-0.261 0.3,7.46 -1.836,2.055 0.196,5.102 3.574,2.59 -0.195,4.726 -2.235,1.699 1.149,-0.082"
         style="fill:#2056ae;fill-opacity:1;fill-rule:nonzero;stroke:none"
         id="path24"
         inkscape:connector-curvature="0" /><path
         d="m 338.566,227.359 -11.171,0.516 8.32,-3.914 10.551,-6.004 14.351,2.551 1.434,6.59 3.539,1.8 2.027,-6.765 0.051,-8.672 0.871,-7.074 -3.711,-5.758 -0.187,-4.711 6.007,-3.836 2.868,-5.238 -0.254,-6.281 -4.395,-4.145 -0.808,-10.594 -2.071,-3.043 -1.465,-7.414 -8.832,-8.672 -6.261,-2.855 -3.621,-3.774 -5.754,0.262 -3.66,-4.551 -7.188,3.075 -6.359,4.988 -1.344,5.172 -4.59,0.195 -5.801,9.324 2.145,5.426 -3.93,8.063 -7.918,3.878 -7.031,7.387 -14.195,1.422 -2.575,2.887 -12.351,-0.25 -6.004,3.816 0.535,3.52 -6.621,7.773 2.453,3.828 2.281,8.164 9.016,3.914 3.262,4.977 3.894,0.625 2.75,1.449 6.137,-1.074 2.773,2.23 10.465,1.102 2.992,-2.074 12.86,3.344 1.972,1.492 4.567,-1.383 4.383,3.75 4.336,1.769 3.949,2.977 -1.485,1.629 -5.375,-0.145 -5.179,-4.093 -3.856,0.144 -1.34,4.801 7.524,5.187 6.562,0.485 1.317,3.887 -6.856,1.851 -3.433,0.945 -2.391,-2.254 1.465,-1.632 -1.59,-1.114 -4.168,1.774 -0.117,-3.555 -0.563,-3.91 0.704,-1.973 -1.235,-1.535 1.457,-2.047 -2.765,-1.812 -0.329,1.566 0.473,1.949 -3.379,2.106 -3.758,2.547 c 0,0 -5.351,1.039 -5.394,-0.172 -0.039,-1.176 1.012,-3.574 1.012,-3.574 l 4.504,-2.934 3.035,-0.941 0.316,-1.985 -1.492,1.246 -1.231,-1.519 -1.257,-2.707 -1.09,1.637 -0.246,3.171 -3.422,1.317 -4.617,0.195 -5.758,0.262 -0.262,-6.098 -2.207,-2.051 -5.437,-0.929 -1.934,-0.492 -2.027,1.843 -1.875,1.825 1.109,3.535 1.016,1.308 2.554,1.059 4.438,0.203 1.847,2.887 -4.117,2.742 3.196,3 4.867,1.156 0.984,5.082 2.348,0.852 -0.063,-1.539 -1.191,-0.543 0.344,-0.996 6.414,1.277 3.328,1.238 0.551,4.477 6.488,2.859 -0.492,2.41 -3.621,0.75 -1.547,4.594 -2.328,-0.117 -2.008,-2.254 0.379,-4.914 -3.297,-5.578 -2.699,0.113 -0.075,3.141 -3.996,-3.543 0.192,4.5 0.746,4.101 4.961,3.93 2.136,9.344 3.168,2.222 5.579,-0.05 2.386,1.652 -1,3.984 0.336,3.91 1.426,1.52 0.504,2.953 -3.07,0.707 0.113,2.356 1.801,1.894 -1.536,4.598 -6.718,1.074 0.488,1.953 2.172,1.469 3.898,1.211 -2.097,4.832 0,5.293 -3.45,0.363 -2.605,2.277 1.426,1.911 1.179,5.261 -6.531,0.481 -2,-1.082 -7.07,5.418 -2.152,3.844 2.031,2.851 5.066,1.145 1.461,2.699 -3.773,2.312 0.855,2.153 2.828,-1.7 7.469,-0.925 2.856,3.804 -0.422,3.758 7.925,1.02 c 0,0 0.313,-2.364 0.899,-1.828 0.613,0.566 -1.485,-3.051 -1.485,-3.051 l -4.007,-3.973 2.41,-2.273 0.715,-1.395 3.058,-0.93 0.301,-2.179 4.289,1.199 2.699,0.652 c 0,0 -0.824,8.129 0.528,8.032 1.332,-0.047 6.785,1.093 6.785,1.093 l 5.754,-0.66 2.343,-3.828 7.336,-0.355 -0.906,6.55 5.25,1.356 6.903,-1.102 -5.942,-3.871 -3.75,-6.738 2.809,-2.074 0.281,-2.575 2.172,6.219 -0.481,2.149 2.735,0.875 1.32,-5.352 2.859,4.391 -1.429,2.195 2.773,1.68 3.348,-2.516 4.008,-1.164 5.214,0.356 3.989,-5.883 -0.067,-1.567 4.586,-1.383 0.567,-4.945 2.574,1.649 3.801,3.382 3.41,-0.937 4.39,-5.699 -1.109,-8.996 5.402,0.546 0.383,4.68 2.125,0.512 0.864,1.914 1.769,1.117 1.277,2.887 0.864,-6.93 -1.977,-1.676 -1.238,-1.914 -1.067,-2.914 -3.914,-1.004 -7.113,-0.254 -1.976,-5.253 0.46,-3.543 -3.636,-3.981 -0.692,-2.523 -4.57,-3.743 0.449,-2.578 3.032,-1.312 1.398,-3.996 1.723,-0.258 1.222,-2.824 0.715,-6.532 2.266,-0.683 0.484,-2.391 3.035,-1.101 1.778,-4.211 -1.805,-1.719 -4.07,-0.187 -7.653,-3.61 -2.433,1.524 -3.84,0.535 -0.125,-3.145 -5.988,-0.117 -5.477,-6.648 -3.746,-7.094 -3.836,0.371 -1.891,-3.867 -6.242,-1.504 0.098,-2.766 2.625,-1.668 3.863,0.219 3.352,6.32 7.586,1.84 2.011,-7.387 -4.511,-6.652 -0.071,-5.926 -2.152,-6.011 -0.832,-1.539 -1.129,1.027 -4.477,-1.352 -4.91,2.391 -1.578,-1.531 -6.762,4.636"
         style="fill:#2056ae;fill-opacity:1;fill-rule:nonzero;stroke:none"
         id="path26"
         inkscape:connector-curvature="0" /><path
         d="m 370.84,239.324 -1.832,-2.304 0.215,-3.93 1.672,-1.641 1.593,1.289 -0.402,4.348 0.625,0.965 -1.871,1.273"
         style="fill:#2056ae;fill-opacity:1;fill-rule:nonzero;stroke:none"
         id="path28"
         inkscape:connector-curvature="0" /><path
         d="m 391.492,278.543 1.688,3.285 4.226,-0.195 0.285,-1.797 c 0,0 3.125,0.453 2.899,-0.117 -0.215,-0.614 -0.453,-1.778 -0.453,-1.778 l -1.657,-2.66 -1.687,0.453 -5.301,2.809"
         style="fill:#2056ae;fill-opacity:1;fill-rule:nonzero;stroke:none"
         id="path30"
         inkscape:connector-curvature="0" /><path
         d="m 400.676,305.691 0.285,11.375 3.676,0.661 1.25,6.789 -1.711,5.414 3.644,4.16 -2.082,5.808 -4.523,2.36 -6.57,-0.504 -0.707,6.535 -5.442,3.395 0.32,2.945 3.051,-0.543 -4.121,2.738 4.063,0.805 0.593,5.5 -5.461,2.793 -1.293,6.555 -5.992,-0.914 -0.504,1.789 1.387,0.714 0.746,4.289 -4.508,2.965 -0.343,5.922 -6.914,4.641 -0.934,5.746 -2.227,1.863 -2.504,0.707 -2.687,4.844 1.48,2.512 -1.457,2.789 -5.703,1.644 3.055,4.375 -4.984,4.973 0.058,1.352 8.227,-0.958 0.886,-2.003 0.129,-6.508 3.735,-2.52 5.328,-1.812 6.023,-8.137 -3.254,-0.051 -1.957,-0.097 4.172,-6.297 1.227,-2.996 3.629,-0.762 0.633,-3.391 -0.336,-3.914 2.859,-0.715 3.094,-4.648 3.336,-3.09 2.976,-7.234 1.778,0.914 7.007,-17.434 3.762,2.762 c 0,0 -2.195,2.652 -1.969,3.832 0.25,1.164 -2.484,5.039 -1.894,5.004 0.57,-0.02 2.312,0.687 2.312,0.687 0,0 2.778,-3.058 2.551,-3.847 -0.223,-0.758 1.57,-4.207 1.57,-4.207 l 0.602,-9.078 1.52,-4.797 -0.711,-8.036 -2.004,-2.445 1.031,-2.801 -0.606,-10.421 -2.968,-2.028 -3.836,-8.691 -1.793,-1.278"
         style="fill:#2056ae;fill-opacity:1;fill-rule:nonzero;stroke:none"
         id="path32"
         inkscape:connector-curvature="0" /><path
         d="m 393.559,381.566 3.05,-0.543 1.801,-3.203 -0.172,-3.953 c 0,0 -1.535,-0.316 -1.91,0.492 -0.332,0.801 -1.23,2.61 -1.23,2.61 0,0 -2.082,0.672 -1.86,1.441 0.215,0.781 0.321,3.156 0.321,3.156"
         style="fill:#2056ae;fill-opacity:1;fill-rule:nonzero;stroke:none"
         id="path34"
         inkscape:connector-curvature="0" /><path
         d="m 399.953,373.418 1.891,-1.086 1.289,-1.836 -1.199,-5.441 -1.731,0.472 -0.25,2.95 -1.668,1.457 1.668,3.484"
         style="fill:#2056ae;fill-opacity:1;fill-rule:nonzero;stroke:none"
         id="path36"
         inkscape:connector-curvature="0" /><path
         d="m 314.758,353 3.832,-0.57 1.566,0.511 2.469,-0.488 1.031,-3.406 6.969,5.609 6.059,1.891 c 0,0 5.226,-3.785 5.808,-3.805 0.582,-0.031 3.66,-0.164 3.66,-0.164 l 9.625,0.164 -7.082,5.633 -4.433,0.184 -1.391,-0.922 0.09,2.168 -6.469,1.664 -3.703,-1.004 -0.879,-2.524 -4.144,-2.589 -5.196,0.652 -1.078,1.625 -1.531,0.25 -0.445,-1.957 -2.129,0.277 -0.282,-1.945 -2.324,-0.481 -0.023,-0.773"
         style="fill:#2056ae;fill-opacity:1;fill-rule:nonzero;stroke:none"
         id="path38"
         inkscape:connector-curvature="0" /><path
         d="m 359.105,349.047 1.801,1.687 3.832,-0.164 1.078,-1.828 -2.195,-2.254 -2.324,-0.093 -0.34,1.207 -1.852,1.445"
         style="fill:#2056ae;fill-opacity:1;fill-rule:nonzero;stroke:none"
         id="path40"
         inkscape:connector-curvature="0" /><path
         d="m 367.5,347.695 1.32,3.868 2.168,1.089 -0.019,3.739 1.578,1.515 0.113,2.559 -1.515,0.656 4.132,2.363 -1.652,2.043 3.949,2.196 1.715,-0.496 0.707,-6.317 -3.676,-0.039 0.852,-3.191 -1.758,-0.309 -0.348,-4.117 2.395,1.863 2.68,-0.121 3.437,-0.922 -1.094,-3.504 -7.316,0.91 0.133,-1.968 -2.367,-1.282 -5.434,-0.535"
         style="fill:#2056ae;fill-opacity:1;fill-rule:nonzero;stroke:none"
         id="path42"
         inkscape:connector-curvature="0" /><path
         d="m 327.879,439.371 c -0.188,-0.57 -0.348,-4.098 -0.348,-4.098 l 6.356,-9.554 4.601,-0.379 1.301,-1.238 4.051,0 -3.274,4.675 -3.418,1.149 -3.226,5.844 -4.559,1.972 -0.121,1.574 -1.363,0.055"
         style="fill:#2056ae;fill-opacity:1;fill-rule:nonzero;stroke:none"
         id="path44"
         inkscape:connector-curvature="0" /><path
         d="m 345.613,420.477 -0.121,-3.332 2.227,-1.668 6.574,0.101 -2.02,2.824 -3.23,0.758 -0.512,1.594 -2.918,-0.277"
         style="fill:#2056ae;fill-opacity:1;fill-rule:nonzero;stroke:none"
         id="path46"
         inkscape:connector-curvature="0" /><path
         d="m 391.285,442.891 -4.207,0.347 -2.019,2.246 -4.43,-1.293 -5.231,-0.753 -0.742,-2.29 -6.136,-3.375 0.089,-2.16 3.434,-2.968 4.426,-3.348 0.73,-5.668 2.875,-5.106 -3.23,-3.66 4.433,-2.851 0.465,-4.492 4.438,1.457 6.703,-3.114 -0.649,-3.449 -1.785,-3.898 6.629,-9.078 2.789,0.871 1.715,-1.899 1.82,1.074 0.629,-4.156 c 0,0 0.391,-2.855 1.512,-3.066 1.121,-0.215 4.852,-0.215 4.852,-0.215 l -0.055,-1.324 5.121,-1.707 c 0,0 0.258,-1.684 0.402,-2.528 0.11,-0.812 2.059,-1.09 2.059,-1.09 l 3.449,-2.957 1.899,-5.062 c 0,0 2.695,-1.774 3.492,-1.793 0.824,-0.059 3.73,0 3.73,0 l 1.781,3.902 5.469,2.707 -0.312,4.34 -4.172,8.961 -13.496,19.156 -2.555,4.762 -9.047,9.531 1.949,3.719 -1.406,1.727 -2.582,0.109 c 0,0 -1.121,4.523 -1.105,5.008 0.035,0.512 -4.735,6.851 -4.735,6.851 l -0.672,3.5 -1.476,-0.425 -1.512,-1.258 -1.441,0.722 -2.582,0.622 -1.313,3.371"
         style="fill:#2056ae;fill-opacity:1;fill-rule:nonzero;stroke:none"
         id="path48"
         inkscape:connector-curvature="0" /><path
         d="m 379.313,457.746 5.863,-2.226 2.172,-3.825 3.465,-0.363 -1.688,1.469 0.207,5.289 -1.465,1.82 -7.519,-0.433 -1.035,-1.731"
         style="fill:#2056ae;fill-opacity:1;fill-rule:nonzero;stroke:none"
         id="path50"
         inkscape:connector-curvature="0" /><path
         d="m 476.926,275.719 c 0,0 -3.192,-2.594 -3.246,-3.223 0,-0.57 -0.106,-2.933 -0.106,-2.933 l 2.528,0.289 1.375,1.316 -0.551,4.551"
         style="fill:#2056ae;fill-opacity:1;fill-rule:nonzero;stroke:none"
         id="path52"
         inkscape:connector-curvature="0" /><path
         d="m 456.133,257.355 -0.645,-1.539 -2.695,-0.093 -0.063,-6.481 2.946,1.852 1.062,1.918 1.379,0.519 0.281,2.344 -1.578,-0.523 -0.687,2.003"
         style="fill:#2056ae;fill-opacity:1;fill-rule:nonzero;stroke:none"
         id="path54"
         inkscape:connector-curvature="0" /><path
         d="m 461.504,228.355 -2.285,0.317 -0.864,-2.106 -1.929,0.075 -0.664,-2.305 -1.582,-0.941 0.468,-2.586 3.09,0.265 3.434,3.805 0.332,3.476"
         style="fill:#2056ae;fill-opacity:1;fill-rule:nonzero;stroke:none"
         id="path56"
         inkscape:connector-curvature="0" /><path
         d="m 467.262,232.648 -2.266,1.086 -0.945,-4.082 1.871,-1.675 1.34,4.671"
         style="fill:#2056ae;fill-opacity:1;fill-rule:nonzero;stroke:none"
         id="path58"
         inkscape:connector-curvature="0" /><path
         d="m 468.656,238.285 1.719,-0.664 -2.414,-2.25 -0.555,0.836 1.25,2.078"
         style="fill:#2056ae;fill-opacity:1;fill-rule:nonzero;stroke:none"
         id="path60"
         inkscape:connector-curvature="0" /><path
         d="m 281.977,253.355 -0.75,-0.406 -0.45,-1.945 0.973,-0.363 -1.047,-1.328 -0.355,-2.704 -0.922,-1.66 1.726,0.391 1.883,0.695 0.746,0.403 -0.941,0.968 0.469,2.254 -0.438,1.403 0.102,2.421 -0.996,-0.129"
         style="fill:#2056ae;fill-opacity:1;fill-rule:nonzero;stroke:none"
         id="path62"
         inkscape:connector-curvature="0" /><path
         d="m 279.945,249.359 -0.007,-1.191 -0.461,-1.535 -0.942,0.668 0.055,1.367 1.355,0.691"
         style="fill:#2056ae;fill-opacity:1;fill-rule:nonzero;stroke:none"
         id="path64"
         inkscape:connector-curvature="0" /><path
         d="m 333.426,257.691 c 0,0 -1.793,-1.875 -1.031,-1.914 0.757,-0.015 1.863,-1.445 1.863,-1.445 l 2.89,-0.121 0.254,-3.172 2.739,1.059 1.941,0.304 2.078,4.043 -2.008,2.051 -5.031,-0.359 -3.465,0.168 -0.23,-0.614"
         style="fill:#2056ae;fill-opacity:1;fill-rule:nonzero;stroke:none"
         id="path66"
         inkscape:connector-curvature="0" /><path
         d="m 326.902,263.098 3.102,-0.149 3.769,-1.711 -0.867,-2.148 -4.015,0.414 -0.692,1.973 -1.297,1.621"
         style="fill:#2056ae;fill-opacity:1;fill-rule:nonzero;stroke:none"
         id="path68"
         inkscape:connector-curvature="0" /><path
         d="m 244.672,311.258 2.078,-0.879 1.199,-3.613 -0.469,-1.938 1.711,-0.855 0.075,-7.864 -3.504,-0.644 -1.25,2.414 1.625,2.105 -0.196,4.731 -2.273,-3.457 -5.488,-2.684 1.117,3.684 2.949,1.437 3.004,2.621 -1.242,2.993 -4.582,1.011 0.867,2.504 4.379,-1.566"
         style="fill:#2056ae;fill-opacity:1;fill-rule:nonzero;stroke:none"
         id="path70"
         inkscape:connector-curvature="0" /><path
         d="M 290.168,51.8438 C 339.914,30.6211 359.473,13.3633 358.895,1.47656 358.535,-6.12109 338.254,17.6328 326.129,25.9766 312.168,36.6328 297.637,46.0117 282.75,48.9102 268.367,51.6484 162.234,9.34375 111.059,46.1172 c 53.871,3.4766 123.019,29.6641 179.109,5.7266"
         style="fill:#2056ae;fill-opacity:1;fill-rule:nonzero;stroke:none"
         id="path72"
         inkscape:connector-curvature="0" /><path
         d="m 68.1406,409.973 c -0.1211,-1.887 -5.4922,-9.918 -5.0625,-9.223 20.3125,31.23 30.4649,25.301 52.5669,44.367 -3.602,-34.996 -43.5473,-56.898 -62.8559,-71.762 -9.1914,51.868 1.9726,97.118 28.9179,136.508 -7.3203,-38.957 -9.3281,-41.492 -13.5664,-99.89"
         style="fill:#2056ae;fill-opacity:1;fill-rule:nonzero;stroke:none"
         id="path74"
         inkscape:connector-curvature="0" /><path
         d="m 76.0039,425.02 c 2.2617,35.882 26.0431,58.625 53.8671,73.488 -8.066,-23.617 -20.601,-54.676 -53.8671,-73.488"
         style="fill:#2056ae;fill-opacity:1;fill-rule:nonzero;stroke:none"
         id="path76"
         inkscape:connector-curvature="0" /><path
         d="M 44.125,338.305 C 51.2383,357.168 69.8359,379.5 89.5078,389.996 86.7969,353.254 54.4883,327.863 37.4141,295.48 17.6719,341.879 8.68359,404.887 36.9492,449.926 37.2656,414.625 47.8359,367.637 44.125,338.305"
         style="fill:#2056ae;fill-opacity:1;fill-rule:nonzero;stroke:none"
         id="path78"
         inkscape:connector-curvature="0" /><path
         d="m 40.2188,272.789 c 6.2773,20.164 11.5585,38.434 27.7265,54.199 10.7735,-29.758 -8.6758,-63.484 -21.3906,-91 C 15.2422,271.137 -5.50391,308.367 3.79688,364.262 15.668,332.922 24.1133,301.59 40.2188,272.789"
         style="fill:#2056ae;fill-opacity:1;fill-rule:nonzero;stroke:none"
         id="path80"
         inkscape:connector-curvature="0" /><path
         d="m 57.5664,197.883 c -0.4258,36.84 3.2109,51.23 13.9609,73.105 17.0665,-35.879 6.9415,-76.515 4.2383,-115.023 C 27.5195,188.992 5.50391,224.531 0,280.418 20.293,249.113 45.3008,228.797 57.5664,197.883"
         style="fill:#2056ae;fill-opacity:1;fill-rule:nonzero;stroke:none"
         id="path82"
         inkscape:connector-curvature="0" /><path
         d="M 128.121,95.9805 C 93.9727,102.086 55.375,113.48 39.2148,148.484 L 22.1523,193.102 C 41.0664,164.43 61.3828,160.641 93.1211,128.465 81.707,170.801 90.3945,179.984 86.7969,207.969 116.438,179.098 117.344,134.484 128.121,95.9805"
         style="fill:#2056ae;fill-opacity:1;fill-rule:nonzero;stroke:none"
         id="path84"
         inkscape:connector-curvature="0" /><path
         d="m 192.77,64.457 c -28.75,1.7422 -58.375,-14.8632 -84.407,0 -15.2692,8.7657 -29.6442,24.4883 -40.4177,38.5 19.7539,-13.1172 60.2027,-7.4257 84.4457,-23.1757 -23.133,19.2421 -12.192,46.4527 -28.684,74.2967 -0.121,0.59 -0.078,0.516 -0.078,0.516 38.937,-15.844 39.332,-78.5237 69.141,-90.137"
         style="fill:#2056ae;fill-opacity:1;fill-rule:nonzero;stroke:none"
         id="path86"
         inkscape:connector-curvature="0" /><path
         d="M 303.297,51.8438 C 253.52,30.6211 233.957,13.3633 234.547,1.47656 c 0.367,-7.59765 20.629,16.15624 32.738,24.50004 13.992,10.6562 28.516,20.0351 43.406,22.9336 14.395,2.7382 120.516,-39.56645 171.704,-2.793 -53.875,3.4766 -123.024,29.6641 -179.098,5.7266"
         style="fill:#2056ae;fill-opacity:1;fill-rule:nonzero;stroke:none"
         id="path88"
         inkscape:connector-curvature="0" /><path
         d="m 525.289,409.973 c 0.145,-1.887 5.52,-9.918 5.086,-9.223 -20.312,31.23 -30.477,25.301 -52.566,44.367 3.586,-34.996 43.535,-56.898 62.871,-71.762 9.172,51.868 -1.977,97.118 -28.918,136.508 7.273,-38.957 9.297,-41.492 13.527,-99.89"
         style="fill:#2056ae;fill-opacity:1;fill-rule:nonzero;stroke:none"
         id="path90"
         inkscape:connector-curvature="0" /><path
         d="m 517.465,425.02 c -2.301,35.882 -26.059,58.625 -53.883,73.488 8.07,-23.617 20.594,-54.676 53.883,-73.488"
         style="fill:#2056ae;fill-opacity:1;fill-rule:nonzero;stroke:none"
         id="path92"
         inkscape:connector-curvature="0" /><path
         d="m 549.34,338.305 c -7.129,18.863 -25.727,41.195 -45.402,51.691 2.722,-36.742 35.039,-62.133 52.089,-94.516 19.746,46.399 28.731,109.407 0.461,154.446 -0.289,-35.301 -10.875,-82.289 -7.148,-111.621"
         style="fill:#2056ae;fill-opacity:1;fill-rule:nonzero;stroke:none"
         id="path94"
         inkscape:connector-curvature="0" /><path
         d="m 553.242,272.789 c -6.301,20.164 -11.574,38.434 -27.754,54.199 -10.773,-29.758 8.7,-63.484 21.391,-91 31.34,35.149 52.074,72.379 42.777,128.274 -11.875,-31.34 -20.34,-62.672 -36.414,-91.473"
         style="fill:#2056ae;fill-opacity:1;fill-rule:nonzero;stroke:none"
         id="path96"
         inkscape:connector-curvature="0" /><path
         d="m 535.883,197.883 c 0.418,36.84 -3.188,51.23 -13.965,73.105 -17.055,-35.879 -6.914,-76.515 -4.234,-115.023 48.261,33.027 70.257,68.566 75.773,124.453 -20.344,-31.305 -45.289,-51.621 -57.574,-82.535"
         style="fill:#2056ae;fill-opacity:1;fill-rule:nonzero;stroke:none"
         id="path98"
         inkscape:connector-curvature="0" /><path
         d="m 465.34,95.9805 c 34.101,6.1055 72.734,17.4995 88.894,52.5035 l 17.059,44.618 c -18.898,-28.672 -39.227,-32.461 -70.953,-64.637 11.422,42.336 2.707,51.519 6.32,79.504 -29.648,-28.871 -30.551,-73.485 -41.32,-111.9885"
         style="fill:#2056ae;fill-opacity:1;fill-rule:nonzero;stroke:none"
         id="path100"
         inkscape:connector-curvature="0" /><path
         d="m 400.676,64.457 c 28.726,1.7422 58.367,-14.8632 84.426,0 15.257,8.7657 29.613,24.4883 40.386,38.5 -19.758,-13.1172 -60.183,-7.4257 -84.449,-23.1757 23.176,19.2421 12.207,46.4527 28.711,74.2967 0.105,0.59 0.086,0.516 0.086,0.516 -38.957,-15.844 -39.348,-78.5237 -69.16,-90.137"
         style="fill:#2056ae;fill-opacity:1;fill-rule:nonzero;stroke:none"
         id="path102"
         inkscape:connector-curvature="0" /><path
         d="m 464.305,296.273 c -0.492,44.836 -18.66,85.5 -47.856,115.344 l 25.813,25.817 c 35.808,-36.461 58.074,-86.254 58.566,-141.161 l -36.523,0 z m -47.86,-119.074 c 29.2,29.848 47.368,70.512 47.86,115.348 l 36.523,0 C 500.336,237.641 478.07,187.844 442.262,151.383 l -25.817,25.816 z m -117.98,-50.492 c 44.836,0.492 85.5,18.66 115.348,47.856 L 439.625,148.75 C 403.164,112.941 353.371,90.6797 298.465,90.1836 l 0,36.5234 z m -119.074,47.856 c 29.847,-29.196 70.511,-47.364 115.347,-47.856 l 0,-36.5234 C 239.832,90.6758 190.039,112.941 153.574,148.746 l 25.817,25.817 z m -50.493,117.984 c 0.493,-44.836 18.661,-85.5 47.86,-115.348 l -25.817,-25.816 c -35.808,36.461 -58.0699,86.258 -58.566,141.164 l 36.523,0 z m 47.856,119.074 C 147.559,381.773 129.391,341.109 128.898,296.273 l -36.523,0 c 0.4961,54.907 22.758,104.7 58.566,141.161 l 25.813,-25.813 z m 117.984,50.488 c -44.836,-0.488 -85.5,-18.656 -115.347,-47.851 l -25.817,25.812 c 36.465,35.809 86.258,58.071 141.164,58.567 l 0,-36.528 z m 119.075,-47.855 c -29.848,29.195 -70.512,47.363 -115.348,47.855 l 0,36.528 c 54.906,-0.496 104.699,-22.758 141.16,-58.567 l -25.812,-25.816 z m 10.214,-117.981 c -0.492,33.735 -14.136,64.329 -36.047,86.879 l 25.833,25.832 c 28.519,-29.171 46.269,-68.902 46.761,-112.711 l -36.547,0 z M 387.98,205.664 c 21.911,22.555 35.555,53.145 36.047,86.883 l 36.547,0 c -0.492,-43.809 -18.242,-83.543 -46.761,-112.711 l -25.833,25.828 z m -89.515,-38.68 c 33.738,0.489 64.328,14.137 86.879,36.043 l 25.832,-25.828 C 382.004,148.68 342.273,130.93 298.465,130.438 l 0,36.546 z m -90.606,36.043 c 22.551,-21.906 53.145,-35.554 86.879,-36.043 l 0,-36.546 c -43.808,0.488 -83.543,18.242 -112.711,46.761 l 25.832,25.828 z m -38.679,89.52 c 0.484,-33.738 14.133,-64.328 36.043,-86.883 l -25.832,-25.828 c -28.52,29.168 -46.27,68.902 -46.762,112.711 l 36.551,0 z m 36.043,90.605 c -21.91,-22.55 -35.559,-53.144 -36.043,-86.879 l -36.551,0 c 0.492,43.809 18.242,83.54 46.762,112.711 l 25.832,-25.832 z m 89.515,38.68 c -33.734,-0.488 -64.328,-14.133 -86.879,-36.043 l -25.832,25.832 c 29.168,28.52 68.903,46.27 112.711,46.762 l 0,-36.551 z m 90.606,-36.043 c -22.551,21.906 -53.141,35.555 -86.879,36.043 l 0,36.551 c 43.808,-0.492 83.543,-18.242 112.711,-46.762 l -25.832,-25.832 z m -1.571,-89.516 c -0.48,22.641 -9.621,43.172 -24.242,58.43 l 25.817,25.817 c 21.23,-21.879 34.461,-51.54 34.949,-84.247 l -36.524,0 z m -24.242,-62.16 c 14.621,15.258 23.762,35.793 24.242,58.434 l 36.524,0 c -0.488,-32.711 -13.719,-62.371 -34.949,-84.246 l -25.817,25.812 z m -61.066,-26.875 c 22.64,0.481 43.176,9.617 58.43,24.242 l 25.816,-25.816 c -21.875,-21.23 -51.539,-34.461 -84.246,-34.949 l 0,36.523 z m -62.156,24.242 c 15.254,-14.625 35.789,-23.761 58.429,-24.242 l 0,-36.523 c -32.707,0.484 -62.371,13.715 -84.246,34.949 l 25.817,25.816 z m -26.875,61.067 c 0.476,-22.641 9.617,-43.176 24.238,-58.434 l -25.817,-25.812 c -21.23,21.875 -34.46,51.535 -34.949,84.246 l 36.528,0 z m 24.238,62.156 c -14.621,-15.258 -23.762,-35.789 -24.238,-58.43 l -36.528,0 c 0.489,32.707 13.719,62.368 34.949,84.247 l 25.817,-25.817 z m 61.066,26.875 c -22.64,-0.476 -43.172,-9.613 -58.429,-24.238 l -25.817,25.816 c 21.875,21.231 51.539,34.461 84.246,34.949 l 0,-36.527 z m 62.157,-24.238 c -15.254,14.621 -35.79,23.762 -58.43,24.238 l 0,36.527 c 32.707,-0.488 62.371,-13.718 84.246,-34.953 L 356.895,357.34 Z M 343.52,296.273 c -0.454,11.543 -5.09,22.028 -12.438,29.981 l 25.813,25.812 c 13.949,-14.578 22.671,-34.183 23.148,-55.793 l -36.523,0 z m -12.438,-33.707 c 7.348,7.95 11.984,18.434 12.438,29.981 l 36.523,0 c -0.477,-21.613 -9.199,-41.215 -23.148,-55.797 l -25.813,25.816 z m -32.617,-15.074 c 11.547,0.453 22.031,5.09 29.98,12.438 l 25.817,-25.817 C 339.68,220.168 320.078,211.445 298.465,210.969 l 0,36.523 z m -33.707,12.438 c 7.949,-7.348 18.433,-11.985 29.98,-12.438 l 0,-36.523 c -21.613,0.476 -41.215,9.195 -55.797,23.144 l 25.817,25.817 z m -15.07,32.617 c 0.453,-11.547 5.085,-22.031 12.433,-29.981 L 236.309,236.75 c -13.95,14.582 -22.668,34.184 -23.149,55.797 l 36.528,0 z m 12.433,33.707 c -7.348,-7.953 -11.98,-18.438 -12.433,-29.981 l -36.528,0 c 0.481,21.61 9.199,41.215 23.149,55.793 l 25.812,-25.812 z m 32.617,15.07 c -11.543,-0.453 -22.027,-5.09 -29.98,-12.433 l -25.817,25.812 c 14.582,13.949 34.184,22.672 55.797,23.149 l 0,-36.528 z m 33.707,-12.433 c -7.949,7.343 -18.433,11.98 -29.98,12.433 l 0,36.528 c 21.609,-0.481 41.215,-9.2 55.797,-23.149 l -25.817,-25.812 z m -31.843,-77.715 c -23.84,0 -43.235,19.394 -43.235,43.234 0,23.84 19.395,43.235 43.235,43.235 23.839,0 43.234,-19.395 43.234,-43.235 0,-23.84 -19.395,-43.234 -43.234,-43.234 z m -0.004,251.211 c -114.676,0 -207.973,-93.297 -207.973,-207.977 0,-114.68 93.297,-207.9803 207.973,-207.9803 114.683,0 207.98,93.3003 207.98,207.9803 0,114.68 -93.297,207.977 -207.98,207.977"
         style="fill:#2056ae;fill-opacity:1;fill-rule:nonzero;stroke:none"
         id="path104"
         inkscape:connector-curvature="0" /><path
         d="m 904.902,346.133 -1.586,0 -94.281,-258.4572 -7.941,0 -131.348,351.6762 42.899,0 94.277,-251.579 1.062,0 92.153,254.758 7.941,0 93.752,-254.758 1.05,0 93.22,251.579 42.37,0 -131.88,-351.6762 -7.942,0 -93.746,258.4572"
         style="fill:#2056ae;fill-opacity:1;fill-rule:nonzero;stroke:none"
         id="path106"
         inkscape:connector-curvature="0" /><path
         d="m 1347.67,166.059 -8.47,0 -127.11,169.484 -1.06,-1.059 0,-244.1598 -40.78,0 0,352.7348 9,0 164.71,-222.45 163.66,222.45 9.01,0 0,-352.7348 -40.79,0 0,123.9338 c 0.53,54.551 0.53,95.863 0.53,124.465 l -1.59,1.058 -127.11,-173.722"
         style="fill:#2056ae;fill-opacity:1;fill-rule:nonzero;stroke:none"
         id="path108"
         inkscape:connector-curvature="0" /><path
         d="m 1652.74,161.82 c 24.89,-27.011 58.79,-40.246 100.63,-40.246 40.78,0 74.14,13.77 99.57,41.309 25.95,28.07 38.66,61.965 38.66,102.219 0,40.785 -13.24,74.679 -39.19,102.218 -25.96,28.071 -58.79,41.84 -99.04,41.84 -40.26,0 -73.62,-13.769 -99.58,-41.308 -25.94,-27.543 -38.66,-61.965 -38.66,-102.75 0,-41.84 12.72,-76.266 37.61,-103.282 z m -32.84,-25.949 c -32.31,33.895 -48.73,76.797 -48.73,129.231 0,50.316 17.48,93.214 52.96,128.171 35.49,35.489 78.92,52.961 129.24,52.961 51.9,0 94.8,-17.472 129.23,-52.429 34.42,-34.43 51.37,-77.328 51.37,-128.703 0,-51.375 -16.95,-94.278 -51.37,-128.7 -33.9,-34.429 -76.8,-51.3786 -129.23,-51.3786 -56.14,0 -100.63,16.9496 -133.47,50.8476"
         style="fill:#2056ae;fill-opacity:1;fill-rule:nonzero;stroke:none"
         id="path110"
         inkscape:connector-curvature="0" /><path
         d="m 271.117,461.594 25.297,-101.172 25.297,101.172 34.922,-19.957 -19.957,34.922 101.172,25.296 -101.172,25.293 19.961,34.926 -34.926,-19.961 -25.297,101.176 -25.297,-101.176 -34.926,19.961 19.961,-34.926 -101.172,-25.293 101.172,-25.296 -19.957,-34.922 34.922,19.957 0,0 z M 296.414,354.59 c -1.859,0 -3.473,1.258 -3.922,3.066 l -24.281,97.121 -31.176,-17.812 c -1.523,-0.879 -3.59,-0.613 -4.855,0.644 -1.293,1.286 -1.563,3.289 -0.657,4.871 l 17.813,31.172 -97.125,24.282 c -1.805,0.449 -3.063,2.058 -3.063,3.921 0,1.864 1.262,3.473 3.071,3.918 l 97.117,24.286 -17.813,31.171 c -0.902,1.575 -0.636,3.575 0.649,4.864 1.273,1.265 3.32,1.535 4.867,0.648 l 31.172,-17.812 24.281,97.129 c 0.449,1.8 2.063,3.058 3.922,3.058 1.863,0 3.477,-1.262 3.918,-3.066 l 24.285,-97.121 31.176,17.812 c 1.535,0.883 3.594,0.613 4.855,-0.644 1.29,-1.285 1.559,-3.282 0.661,-4.864 l -17.821,-31.175 97.129,-24.286 c 1.797,-0.445 3.063,-2.054 3.063,-3.918 0,-1.863 -1.262,-3.472 -3.067,-3.921 l -97.125,-24.282 17.821,-31.175 c 0.902,-1.59 0.629,-3.59 -0.664,-4.872 -1.254,-1.246 -3.305,-1.523 -4.852,-0.64 l -31.176,17.812 -24.285,-97.125 c -0.441,-1.8 -2.055,-3.062 -3.918,-3.062 l 0,0"
         style="fill:#1371a9;fill-opacity:1;fill-rule:nonzero;stroke:none"
         id="path112"
         inkscape:connector-curvature="0" /><path
         d="m 271.117,461.594 25.297,-101.172 25.297,101.172 34.922,-19.957 -19.957,34.922 101.172,25.296 -101.172,25.293 19.961,34.926 -34.926,-19.961 -25.297,101.176 -25.297,-101.176 -34.926,19.961 19.961,-34.926 -101.172,-25.293 101.172,-25.296 -19.957,-34.922 34.922,19.957 0,0 z M 296.414,354.59 c -1.859,0 -3.473,1.258 -3.922,3.066 l -24.281,97.121 -31.176,-17.812 c -1.523,-0.879 -3.59,-0.613 -4.855,0.644 -1.293,1.286 -1.563,3.289 -0.657,4.871 l 17.813,31.172 -97.125,24.282 c -1.805,0.449 -3.063,2.058 -3.063,3.921 0,1.864 1.262,3.473 3.071,3.918 l 97.117,24.286 -17.813,31.171 c -0.902,1.575 -0.636,3.575 0.649,4.864 1.273,1.265 3.32,1.535 4.867,0.648 l 31.172,-17.812 24.281,97.129 c 0.449,1.8 2.063,3.058 3.922,3.058 1.863,0 3.477,-1.262 3.918,-3.066 l 24.285,-97.121 31.176,17.812 c 1.535,0.883 3.594,0.613 4.855,-0.644 1.29,-1.285 1.559,-3.282 0.661,-4.864 l -17.821,-31.175 97.129,-24.286 c 1.797,-0.445 3.063,-2.054 3.063,-3.918 0,-1.863 -1.262,-3.472 -3.067,-3.921 l -97.125,-24.282 17.821,-31.175 c 0.902,-1.59 0.629,-3.59 -0.664,-4.872 -1.254,-1.246 -3.305,-1.523 -4.852,-0.64 l -31.176,17.812 -24.285,-97.125 c -0.441,-1.8 -2.055,-3.062 -3.918,-3.062 l 0,0 z"
         style="fill:none;stroke:#2056ae;stroke-width:3;stroke-linecap:round;stroke-linejoin:round;stroke-miterlimit:10;stroke-dasharray:none;stroke-opacity:1"
         id="path114"
         inkscape:connector-curvature="0" /><path
         d="m 271.117,461.594 25.297,-101.172 25.297,101.172 34.922,-19.957 -19.957,34.922 101.172,25.296 -101.172,25.293 19.961,34.926 -34.926,-19.961 -25.297,101.176 -25.297,-101.176 -34.926,19.961 19.961,-34.926 -101.172,-25.293 101.172,-25.296 -19.957,-34.922 34.922,19.957 0,0 z M 296.414,354.59 c -1.859,0 -3.473,1.258 -3.922,3.066 l -24.281,97.121 -31.176,-17.812 c -1.523,-0.879 -3.59,-0.613 -4.855,0.644 -1.293,1.286 -1.563,3.289 -0.657,4.871 l 17.813,31.172 -97.125,24.282 c -1.805,0.449 -3.063,2.058 -3.063,3.921 0,1.864 1.262,3.473 3.071,3.918 l 97.117,24.286 -17.813,31.171 c -0.902,1.575 -0.636,3.575 0.649,4.864 1.273,1.265 3.32,1.535 4.867,0.648 l 31.172,-17.812 24.281,97.129 c 0.449,1.8 2.063,3.058 3.922,3.058 1.863,0 3.477,-1.262 3.918,-3.066 l 24.285,-97.121 31.176,17.812 c 1.535,0.883 3.594,0.613 4.855,-0.644 1.29,-1.285 1.559,-3.282 0.661,-4.864 l -17.821,-31.175 97.129,-24.286 c 1.797,-0.445 3.063,-2.054 3.063,-3.918 0,-1.863 -1.262,-3.472 -3.067,-3.921 l -97.125,-24.282 17.821,-31.175 c 0.902,-1.59 0.629,-3.59 -0.664,-4.872 -1.254,-1.246 -3.305,-1.523 -4.852,-0.64 l -31.176,17.812 -24.285,-97.125 c -0.441,-1.8 -2.055,-3.062 -3.918,-3.062 l 0,0 z"
         style="fill:none;stroke:#2056ae;stroke-width:4;stroke-linecap:round;stroke-linejoin:round;stroke-miterlimit:4;stroke-dasharray:none;stroke-opacity:1"
         id="path116"
         inkscape:connector-curvature="0" /><path
         d="m 440.074,503.602 -99.992,25 19.281,33.738 c 0.403,0.707 0.285,1.598 -0.293,2.172 -0.574,0.574 -1.461,0.695 -2.168,0.289 l -33.742,-19.278 -25,99.993 c -0.195,0.804 -0.918,1.367 -1.746,1.367 -0.828,0 -1.551,-0.563 -1.75,-1.367 l -25,-99.993 -33.738,19.278 c -0.707,0.406 -1.594,0.285 -2.168,-0.289 -0.578,-0.574 -0.699,-1.465 -0.293,-2.172 l 19.277,-33.738 -99.988,-25 c -0.805,-0.196 -1.367,-0.918 -1.367,-1.747 0,-0.832 0.562,-1.55 1.367,-1.75 l 99.988,-25 -19.277,-33.738 c -0.406,-0.707 -0.285,-1.597 0.293,-2.172 0.574,-0.574 1.461,-0.695 2.168,-0.289 l 33.738,19.278 25,-99.989 c 0.199,-0.804 0.922,-1.371 1.75,-1.371 0.828,0 1.551,0.567 1.746,1.371 l 25,99.989 33.742,-19.278 c 0.707,-0.402 1.594,-0.285 2.168,0.289 0.578,0.575 0.696,1.465 0.293,2.172 l -19.281,33.738 99.992,25 c 0.805,0.2 1.367,0.918 1.367,1.75 0,0.829 -0.562,1.551 -1.367,1.747"
         style="fill:#ffffff;fill-opacity:1;fill-rule:nonzero;stroke:none"
         id="path118"
         inkscape:connector-curvature="0" /><path
         d="m 440.074,503.602 -99.992,25 19.281,33.738 c 0.403,0.707 0.285,1.598 -0.293,2.172 -0.574,0.574 -1.461,0.695 -2.168,0.289 l -33.742,-19.278 -25,99.993 c -0.195,0.804 -0.918,1.367 -1.746,1.367 -0.828,0 -1.551,-0.563 -1.75,-1.367 l -25,-99.993 -33.738,19.278 c -0.707,0.406 -1.594,0.285 -2.168,-0.289 -0.578,-0.574 -0.699,-1.465 -0.293,-2.172 l 19.277,-33.738 -99.988,-25 c -0.805,-0.196 -1.367,-0.918 -1.367,-1.747 0,-0.832 0.562,-1.55 1.367,-1.75 l 99.988,-25 -19.277,-33.738 c -0.406,-0.707 -0.285,-1.597 0.293,-2.172 0.574,-0.574 1.461,-0.695 2.168,-0.289 l 33.738,19.278 25,-99.989 c 0.199,-0.804 0.922,-1.371 1.75,-1.371 0.828,0 1.551,0.567 1.746,1.371 l 25,99.989 33.742,-19.278 c 0.707,-0.402 1.594,-0.285 2.168,0.289 0.578,0.575 0.696,1.465 0.293,2.172 l -19.281,33.738 99.992,25 c 0.805,0.2 1.367,0.918 1.367,1.75 0,0.829 -0.562,1.551 -1.367,1.747"
         style="fill:#ffffff;fill-opacity:1;fill-rule:nonzero;stroke:none"
         id="path120"
         inkscape:connector-curvature="0" /><path
         d="m 158.313,501.855 97.179,24.254 40.922,-24.254 -138.101,0 z"
         style="fill:#f89c0e;fill-opacity:1;fill-rule:nonzero;stroke:none"
         id="path122"
         inkscape:connector-curvature="0" /><path
         d="m 434.512,501.855 -97.18,-24.261 -40.922,24.261 138.102,0 z"
         style="fill:#f89c0e;fill-opacity:1;fill-rule:nonzero;stroke:none"
         id="path124"
         inkscape:connector-curvature="0" /><path
         d="m 296.414,363.754 -24.258,97.18 24.258,40.921 0,-138.101 z"
         style="fill:#f89c0e;fill-opacity:1;fill-rule:nonzero;stroke:none"
         id="path126"
         inkscape:connector-curvature="0" /><path
         d="m 296.414,639.953 24.258,-97.18 -24.258,-40.918 0,138.098 z"
         style="fill:#f89c0e;fill-opacity:1;fill-rule:nonzero;stroke:none"
         id="path128"
         inkscape:connector-curvature="0" /><path
         d="m 238.867,559.5 37.086,-21.449 20.461,-36.196 -57.547,57.645 z"
         style="fill:#f89c0e;fill-opacity:1;fill-rule:nonzero;stroke:none"
         id="path130"
         inkscape:connector-curvature="0" /><path
         d="m 354.598,443.781 -37.086,21.446 -21.098,36.628 58.184,-58.074 z"
         style="fill:#f89c0e;fill-opacity:1;fill-rule:nonzero;stroke:none"
         id="path132"
         inkscape:connector-curvature="0" /><path
         d="m 238.871,443.777 21.449,37.082 36.094,20.996 -57.543,-58.078 z"
         style="fill:#f89c0e;fill-opacity:1;fill-rule:nonzero;stroke:none"
         id="path134"
         inkscape:connector-curvature="0" /><path
         d="m 354.594,559.508 -21.446,-37.086 -36.734,-20.567 58.18,57.653 z"
         style="fill:#f89c0e;fill-opacity:1;fill-rule:nonzero;stroke:none"
         id="path136"
         inkscape:connector-curvature="0" /></g></g></svg>